HIERARCHY
ROOT joint_Root
{
	OFFSET 0.0 0.0 0.0
	CHANNELS 6 Xposition Yposition Zposition Zrotation Xrotation Yrotation 
	JOINT Hips
	{
		OFFSET 4.5925 91.4895 -427.239
		CHANNELS 6 Xposition Yposition Zposition Zrotation Xrotation Yrotation 
		JOINT Spine
		{
			OFFSET 15.7357 0.0 0.0
			CHANNELS 6 Xposition Yposition Zposition Zrotation Xrotation Yrotation 
			JOINT Chest
			{
				OFFSET 8.98455 -0.406207 0.0
				CHANNELS 6 Xposition Yposition Zposition Zrotation Xrotation Yrotation 
				JOINT Neck
				{
					OFFSET 16.3773 0.0 0.0
					CHANNELS 6 Xposition Yposition Zposition Zrotation Xrotation Yrotation 
					JOINT Head
					{
						OFFSET 6.45672 0.0 0.0
						CHANNELS 6 Xposition Yposition Zposition Zrotation Xrotation Yrotation 
						End Site
						{
							OFFSET 0.0 0.0 0.0
						}
					}
				}
				JOINT Shoulder_L
				{
					OFFSET 12.9942 -0.242716 4.98039
					CHANNELS 6 Xposition Yposition Zposition Zrotation Xrotation Yrotation 
					JOINT UpperArm_L
					{
						OFFSET 5.34809 0.0 0.0
						CHANNELS 6 Xposition Yposition Zposition Zrotation Xrotation Yrotation 
						JOINT LowerArm_L
						{
							OFFSET 24.3286 1.87007e-05 0.0
							CHANNELS 6 Xposition Yposition Zposition Zrotation Xrotation Yrotation 
							JOINT Hand_L
							{
								OFFSET 22.2916 0.0 0.0
								CHANNELS 6 Xposition Yposition Zposition Zrotation Xrotation Yrotation 
								End Site
								{
									OFFSET 0.0 0.0 0.0
								}
							}
						}
					}
				}
				JOINT Shoulder_R
				{
					OFFSET 12.9945 -0.242716 -4.98039
					CHANNELS 6 Xposition Yposition Zposition Zrotation Xrotation Yrotation 
					JOINT UpperArm_R
					{
						OFFSET -5.34813 0.0 0.0
						CHANNELS 6 Xposition Yposition Zposition Zrotation Xrotation Yrotation 
						JOINT LowerArm_R
						{
							OFFSET -24.3289 0.000322201 0.0
							CHANNELS 6 Xposition Yposition Zposition Zrotation Xrotation Yrotation 
							JOINT Hand_R
							{
								OFFSET -22.2915 -0.000108084 0.0
								CHANNELS 6 Xposition Yposition Zposition Zrotation Xrotation Yrotation 
								End Site
								{
									OFFSET 0.0 0.0 0.0
								}
							}
						}
					}
				}
			}
		}
		JOINT UpperLeg_L
		{
			OFFSET -2.19248 -6.46944 0.0
			CHANNELS 6 Xposition Yposition Zposition Zrotation Xrotation Yrotation 
			JOINT LowerLeg_L
			{
				OFFSET 39.0811 0.0 -1.23785e-05
				CHANNELS 6 Xposition Yposition Zposition Zrotation Xrotation Yrotation 
				JOINT Foot_L
				{
					OFFSET 40.9854 0.0 -1.26872e-05
					CHANNELS 6 Xposition Yposition Zposition Zrotation Xrotation Yrotation 
					JOINT Toes_L
					{
						OFFSET 11.7543 0.0 0.0
						CHANNELS 6 Xposition Yposition Zposition Zrotation Xrotation Yrotation 
						End Site
						{
							OFFSET 0.0 0.0 0.0
						}
					}
				}
			}
		}
		JOINT UpperLeg_R
		{
			OFFSET -2.19251 6.46944 0.0
			CHANNELS 6 Xposition Yposition Zposition Zrotation Xrotation Yrotation 
			JOINT LowerLeg_R
			{
				OFFSET -39.0811 -0.00228153 -0.0401928
				CHANNELS 6 Xposition Yposition Zposition Zrotation Xrotation Yrotation 
				JOINT Foot_R
				{
					OFFSET -40.9854 0.0 0.0
					CHANNELS 6 Xposition Yposition Zposition Zrotation Xrotation Yrotation 
					JOINT Toes_R
					{
						OFFSET -11.7543 0.0 0.0
						CHANNELS 6 Xposition Yposition Zposition Zrotation Xrotation Yrotation 
						End Site
						{
							OFFSET 0.0 0.0 0.0
						}
					}
				}
			}
		}
	}
}
MOTION
Frames:	4
Frame Time:	0.0333333
0.000000 0.000000 0.000000 0.000000 0.000000 -0.000000 -0.749060 89.892100 -4.113720 88.685800 -2.988260 11.278000 15.735700 0.000005 -0.000001 86.942700 75.990400 -88.451100 8.984550 -0.406207 -0.000000 20.198700 -1.623080 -2.737480 16.377300 -0.000001 -0.000001 7.153850 -4.762780 1.054580 6.456720 -0.000001 -0.000000 -5.715710 -3.227330 -5.013130 12.994200 -0.242716 4.980390 -91.225400 6.207870 -78.810700 5.348090 -0.000007 -0.000001 -49.397200 36.428700 -34.186900 24.328600 0.000019 0.000005 7.492910 19.610400 -21.399500 22.291600 -0.000001 0.000005 7.650520 5.273110 0.814116 12.994500 -0.242716 -4.980390 89.280100 3.896470 -79.523700 -5.348130 -0.000001 -0.000004 -70.174800 -9.933400 -70.231000 -24.328900 0.000322 -0.000009 18.089900 -6.706300 -109.672000 -22.291500 -0.000108 -0.000004 30.061200 5.261740 1.120400 -2.192480 -6.469440 -0.000000 -174.355000 -12.613200 -5.156080 39.081100 -0.000007 -0.000012 -0.208740 0.276710 37.030000 40.985400 -0.000006 -0.000013 0.173966 2.547660 -70.330800 11.754300 -0.000000 0.000003 -0.000209 -0.001921 -16.649900 -2.192510 6.469440 -0.000001 175.725000 19.927900 176.235000 -39.081100 -0.002282 -0.040193 -0.104935 0.149420 35.915600 -40.985400 0.000008 0.000006 5.666340 11.159000 -71.015900 -11.754300 -0.000006 -0.000006 -0.004306 -0.054587 -18.793700
0.000000 0.000000 0.000000 0.000000 0.000000 -0.000000 -0.734328 89.895000 -4.147720 88.693300 -3.026100 11.308600 15.735700 0.000005 -0.000001 86.914800 75.948100 -88.436300 8.984550 -0.406207 -0.000000 20.282200 -1.643090 -2.759110 16.377300 -0.000001 -0.000001 7.342500 -4.769200 0.995159 6.456720 -0.000001 -0.000000 -5.611880 -3.244070 -5.088340 12.994200 -0.242716 4.980390 -91.238400 6.244880 -78.759900 5.348090 -0.000007 -0.000001 -49.300100 36.523900 -34.242200 24.328600 0.000019 0.000005 7.450660 19.507000 -21.387000 22.291600 -0.000001 0.000005 7.649390 5.274860 0.766354 12.994500 -0.242716 -4.980390 89.279500 3.901000 -79.527800 -5.348130 -0.000001 -0.000004 -70.139700 -9.902890 -70.250500 -24.328900 0.000322 -0.000009 18.209000 -6.740420 -109.636000 -22.291500 -0.000108 -0.000004 30.098200 5.262560 1.098360 -2.192480 -6.469440 -0.000000 -174.365000 -12.646500 -5.140790 39.081100 -0.000007 -0.000012 -0.208241 0.276161 37.018700 40.985400 -0.000006 -0.000013 0.191947 2.552970 -70.304500 11.754300 -0.000000 0.000003 -0.000214 -0.001961 -16.651400 -2.192510 6.469440 -0.000001 175.697000 19.937100 176.240000 -39.081100 -0.002282 -0.040193 -0.106116 0.151079 35.910300 -40.985400 0.000008 0.000006 5.663490 11.211300 -70.982800 -11.754300 -0.000006 -0.000006 -0.004350 -0.055033 -18.811900
0.000000 0.000000 0.000000 0.000000 0.000000 -0.000000 -0.727387 89.903300 -4.194150 88.672800 -3.065010 11.287500 15.735700 0.000005 -0.000001 86.900800 75.911600 -88.426300 8.984550 -0.406207 -0.000000 20.354700 -1.654800 -2.764040 16.377300 -0.000001 -0.000001 7.459050 -4.769230 0.928190 6.456720 -0.000001 -0.000000 -5.549800 -3.259000 -5.150430 12.994200 -0.242716 4.980390 -91.239900 6.247240 -78.751300 5.348090 -0.000007 -0.000001 -49.280800 36.589300 -34.247200 24.328600 0.000019 0.000005 7.456230 19.560700 -21.350400 22.291600 -0.000001 0.000005 7.597680 5.274840 0.766906 12.994500 -0.242716 -4.980390 89.273700 3.924590 -79.506900 -5.348130 -0.000001 -0.000004 -70.185400 -9.847880 -70.326900 -24.328900 0.000322 -0.000009 18.089200 -6.676790 -109.593000 -22.291500 -0.000108 -0.000004 30.061300 5.263280 1.078940 -2.192480 -6.469440 -0.000000 -174.337000 -12.712200 -5.174020 39.081100 -0.000007 -0.000012 -0.206962 0.274673 36.997900 40.985400 -0.000006 -0.000013 0.207863 2.596890 -70.267000 11.754300 -0.000000 0.000003 -0.000221 -0.002012 -16.653200 -2.192510 6.469440 -0.000001 175.725000 19.955900 176.207000 -39.081100 -0.002282 -0.040193 -0.108179 0.154182 35.865700 -40.985400 0.000008 0.000006 5.652080 11.284500 -70.925800 -11.754300 -0.000006 -0.000006 -0.004371 -0.055241 -18.820400
0.000000 0.000000 0.000000 0.000000 0.000000 -0.000000 -0.708898 89.910000 -4.239000 88.681400 -3.085170 11.279300 15.735700 0.000005 -0.000001 86.867700 75.870300 -88.397900 8.984550 -0.406207 -0.000000 20.436000 -1.676400 -2.768530 16.377300 -0.000001 -0.000001 7.545200 -4.746630 0.884757 6.456720 -0.000001 -0.000000 -5.549660 -3.222000 -5.286490 12.994200 -0.242716 4.980390 -91.241100 6.256370 -78.756300 5.348090 -0.000007 -0.000001 -49.359000 36.613500 -34.175800 24.328600 0.000019 0.000005 7.474720 19.680700 -21.285000 22.291600 -0.000001 0.000005 7.596360 5.273580 0.801318 12.994500 -0.242716 -4.980390 89.279000 3.900870 -79.519700 -5.348130 -0.000001 -0.000004 -70.243500 -9.817060 -70.418600 -24.328900 0.000322 -0.000009 18.159700 -6.690830 -109.556000 -22.291500 -0.000108 -0.000004 30.110400 5.261940 1.114890 -2.192480 -6.469440 -0.000000 -174.365000 -12.756200 -5.206060 39.081100 -0.000007 -0.000012 -0.205711 0.273250 36.973900 40.985400 -0.000006 -0.000013 0.227913 2.585640 -70.221600 11.754300 -0.000000 0.000003 -0.000214 -0.001958 -16.651300 -2.192510 6.469440 -0.000001 175.696000 19.980200 176.178000 -39.081100 -0.002282 -0.040193 -0.113520 0.161815 35.824200 -40.985400 0.000008 0.000006 5.478970 11.375700 -70.824300 -11.754300 -0.000006 -0.000006 -0.004355 -0.055080 -18.813800
